/* XPM */
static char *_56add1e1af34703f6a54fbf4ed6be75D1c2gy1AZ6evoz1l[] = {
/* columns rows colors chars-per-pixel */
"29 28 9 1 ",
"  c None",
". c #422632",
"X c #733D3B",
"o c #F77622",
"O c #D77643",
"+ c #FDAE35",
"@ c #C28569",
"# c #FEE861",
"$ c #EBD4AB",
/* pixels */
"                             ",
"                             ",
"       +++         +++       ",
"     XX+++XXXXXXXXX+++XX     ",
"     XX+++XXXXXXXXX+++XX     ",
"     ..+#+......X..+#+..     ",
"   ++XX###XXXXXXXXX###XX++   ",
"   ++XX###XXXXXXXXX###XX++   ",
"   ++XX+++XXXXXXXXX+++XX++   ",
"   ++..+++..X......+++..++   ",
"   ++XX+++XXXXXXXXX+++XX++   ",
"   ++XX++oXXXXXXXXXo+oXX++   ",
"   ++..oooX....XXX.ooo..+#   ",
"   ++..ooo.........ooo..+#   ",
"   ++++++++++++++++++++###   ",
"   ooooooooooooooooooooooo   ",
"    OO.......+++.......OO    ",
"   o++.XXX.XX+++XX.XXX.++o   ",
"   o++.XXX.XX@#@XX.XXX.++o   ",
"   o++XXXX.XX.o.XXXXXX.++o   ",
"    ++XXXX.X$.$.$X.XXXX++    ",
"    ++.XXXXX$$$$$X.XXXX++    ",
"    ++.XXX.X@@@@@X.XXX.++    ",
"    ++.XXX.X@@.@@X.XXX.++    ",
"   +++++++++@@@@@++++++++#   ",
"   +++++++++++++++#+##+###   ",
"   ooooooooooooooooooooooo   ",
"                             "
};
