/* XPM */
static char *dae4fcbd513247cb91252908f8b2d7f0umcSRoEKXCUJfFlO[] = {
/* columns rows colors chars-per-pixel */
"32 32 3 1 ",
"  c None",
". c #2F2F2E",
"X c gray24",
/* pixels */
"                                ",
"                                ",
"                                ",
"    XXXX      XXXX      XXXX    ",
"   X....X    X....X    X....X   ",
"   ......    ......    ......   ",
"    ....      ....      ....    ",
"                                ",
"                                ",
"                                ",
"                                ",
"                                ",
"                                ",
"    XXXX      XXXX      XXXX    ",
"   X....X    X....X    X....X   ",
"   ......    ......    ......   ",
"    ....      ....      ....    ",
"                                ",
"                                ",
"                                ",
"                                ",
"                                ",
"                                ",
"    XXXX      XXXX      XXXX    ",
"   X....X    X....X    X....X   ",
"   ......    ......    ......   ",
"    ....      ....      ....    ",
"                                ",
"                                ",
"                                ",
"                                ",
"                                "
};