/* XPM */
static char *_2cfe94180d54c79ae13f3d1bf570cf5zmbf1w9BzUxRDBNG[] = {
/* columns rows colors chars-per-pixel */
"32 32 5 1 ",
"  c None",
". c #2F2F2E",
"X c gray24",
"o c red",
"O c black",
/* pixels */
"                                ",
"     O         O         O      ",
"     O         O         O      ",
"     Oo        Oo        Oo     ",
"    XOoX      XOoX      XOoX    ",
"   X.Oo.X    X.Oo.X    X.Oo.X   ",
"   ..Oo..    ..Oo..    ..Oo..   ",
"    .Oo.      .Oo.      .Oo.    ",
"                                ",
"                                ",
"                                ",
"     O         O         O      ",
"     O         O         O      ",
"     Oo        Oo        Oo     ",
"    XOoX      XOoX      XOoX    ",
"   X.Oo.X    X.Oo.X    X.Oo.X   ",
"   ..Oo..    ..Oo..    ..Oo..   ",
"    .Oo.      .Oo.      .Oo.    ",
"                                ",
"                                ",
"                                ",
"     O         O         O      ",
"     O         O         O      ",
"     Oo        Oo        Oo     ",
"    XOoX      XOoX      XOoX    ",
"   X.Oo.X    X.Oo.X    X.Oo.X   ",
"   ..Oo..    ..Oo..    ..Oo..   ",
"    .Oo.      .Oo.      .Oo.    ",
"                                ",
"                                ",
"                                ",
"                                "
};