/* XPM */
static char *_3320b591c9047349d3584a60567ec50YDgwSHrpvcYtrDk1[] = {
/* columns rows colors chars-per-pixel */
"32 32 165 2 ",
"   c None",
".  c #00000E",
"X  c #08000F",
"o  c #06090F",
"O  c #0D140F",
"+  c #10100F",
"@  c #111D0E",
"#  c #121C12",
"$  c #1A1B15",
"%  c #2B0016",
"&  c #251214",
"*  c #27131A",
"=  c #321A16",
"-  c #34191C",
";  c #3C1D1A",
":  c #0A2C0E",
">  c #14250F",
",  c #142511",
"<  c #182514",
"1  c #172C12",
"2  c #192F13",
"3  c #003813",
"4  c #1B3312",
"5  c #163D16",
"6  c #1F3913",
"7  c #232F18",
"8  c #34291A",
"9  c #3D2B1E",
"0  c #253514",
"q  c #2D3216",
"w  c #243B15",
"e  c #273118",
"r  c #293518",
"t  c #253F19",
"y  c #2D3B1C",
"u  c #33321A",
"i  c #313D19",
"p  c #3E3C1E",
"a  c #43221E",
"s  c #4B2520",
"d  c #532C27",
"f  c #592728",
"g  c #5B2F28",
"h  c #553026",
"j  c #5B3527",
"k  c #5B3E25",
"l  c #5D312B",
"z  c #6A282F",
"x  c #62352C",
"c  c #6D3E32",
"v  c #124317",
"b  c #1F4C16",
"n  c #234314",
"m  c #294617",
"M  c #264A15",
"N  c #2B4D17",
"B  c #2B4619",
"V  c #244A18",
"C  c #284919",
"Z  c #334B17",
"A  c #37431E",
"S  c #3C441B",
"D  c #334C1A",
"F  c #3E4A1C",
"G  c #2B5216",
"H  c #225219",
"J  c #2D5419",
"K  c #205A19",
"L  c #2D5C1A",
"P  c #34531B",
"I  c #3C541E",
"U  c #335B1C",
"Y  c #3B5E1C",
"T  c #2D601B",
"R  c #35631C",
"E  c #3B641E",
"W  c #366A1E",
"Q  c #3A6B1F",
"!  c #3D721F",
"~  c #3D6421",
"^  c #3C6B20",
"/  c #3D7220",
"(  c #404B1E",
")  c #41551B",
"_  c #455B1F",
"`  c #45661F",
"'  c #4B641F",
"]  c #446A1F",
"[  c #496C1E",
"{  c #50641E",
"}  c #4A711F",
"|  c #52731F",
" . c #434A20",
".. c #435721",
"X. c #485521",
"o. c #445E20",
"O. c #4B5E21",
"+. c #744333",
"@. c #7A4733",
"#. c #7E4A36",
"$. c #436422",
"%. c #436D20",
"&. c #4B6D22",
"*. c #536622",
"=. c #546F24",
"-. c #437421",
";. c #4C7521",
":. c #457A22",
">. c #4C7B23",
",. c #537322",
"<. c #597722",
"1. c #547B23",
"2. c #5B7C24",
"3. c #636F2A",
"4. c #617D23",
"5. c #864F39",
"6. c #8E553B",
"7. c #448124",
"8. c #478324",
"9. c #4A8222",
"0. c #4E8424",
"q. c #4C8825",
"w. c #518123",
"e. c #538325",
"r. c #558024",
"t. c #578125",
"y. c #548425",
"u. c #588225",
"i. c #5B8225",
"p. c #5D8124",
"a. c #5A8727",
"s. c #598625",
"d. c #5D8425",
"f. c #5C8526",
"g. c #5E8426",
"h. c #5C8626",
"j. c #5F8727",
"k. c #5F8325",
"l. c #578B26",
"z. c #578C26",
"x. c #538C27",
"c. c #5C8927",
"v. c #5F8826",
"b. c #5C8A27",
"n. c #588D27",
"m. c #5E8925",
"M. c #5D8D28",
"N. c #5B9229",
"B. c #608525",
"V. c #668627",
"C. c #638326",
"Z. c #6B8426",
"A. c #628927",
"S. c #648926",
"D. c #678A27",
"F. c #608E27",
"G. c #668827",
"H. c #6B8826",
"J. c #608A28",
"K. c #658D28",
"L. c #688F29",
"P. c #6A8E28",
"I. c #629029",
"U. c #649428",
"Y. c #779A2B",
/* pixels */
"                                                                ",
"                                                                ",
"                  < , 6 n m ^ R ,.t U J #                       ",
"                1 G R ^ E m ^ ^ } T >.g.E ,.q                   ",
"              1 J J 7.^ ] 8 F l.<.Z 9 Y r.Y.D b w               ",
"          @ 6 n U ..>.;.5 A P R e.,.~ _ -.F.1.^ 0               ",
"          O N J / ! Q ] E } 1.>.4.H [ a.K.B.<.4.D v             ",
"          , 4 V / ! T } 9.W V._ a.E 1.1.g.Y e i.1.U             ",
"        X n Q P m $.^ :.L U  .P q.F.y X.$.;.&.;.J.u.'           ",
"        # > M 6 N ^ $.>.R B &.U } E %.[ 2.n.L.=.,.,.            ",
"            O : ! ! Q U 0.U g.,.P.| R ,.M.A.O.D 9.t.            ",
"          . 6 ;.T } W Q 9.^ ;.*.U :.o.2.1.E D *.~ 3             ",
"          6 2.,.L u N R t.<.u.;.1.i.O.! F.H.g.P A U             ",
"        . B &.e -.E A W L ] b.g.;.n.2.U >.&.D p _ `             ",
"          . ,.1.b U M :.m Q B.U B.*.y i t.u.E ~ O.D             ",
"          o [ x.M m G M &.,.;.;.P.{ r $.t.g.C.>.b.2..           ",
"          , G L R Y p V ^ ;.1.K.;.x.H.E 8.J.<.e.;.V             ",
"            + M G ! U E ! H l.;.1.;.2.S N ~ %.,.1.$             ",
"              1 J M n R D u ,.,.1.Z.$ n ;.B.:.>.U               ",
"                @ > 6 W ! $.$.U U.2.K -.R N &.)                 ",
"                        4 L N.4.$.3.&.                          ",
"                            F  .z +.                            ",
"                            % f @.+.                            ",
"                            a g c #.*                           ",
"                            s l c 6.j                           ",
"                        & a g l x 5.@.- &                       ",
"                          & d d = ; h h                         ",
"                                                                ",
"                                                                ",
"                                                                ",
"                                                                ",
"                                                                "
};
