
   
/* XPM */
static char *_c6b69cc98c8463ad4cf80a87b39c631cxv6fnN2yK4jSlMM[] = {
/* columns rows colors chars-per-pixel */
"32 32 20 1 ",
"  c None",
". c black",
"X c gray11",
"o c gray14",
"O c gray22",
"+ c #4A2D20",
"@ c #69412D",
"# c #7D5125",
"$ c #8C563A",
"% c #96674A",
"& c #A67251",
"* c #89837E",
"= c #B8977F",
"- c #78D1D5",
"; c #CCAB93",
": c #DCBEA7",
"> c #BABADE",
", c gray87",
"< c #F4F3F3",
"1 c white",
/* pixels */
"                                ",
"              ;;111             ",
"             ;;:1-1             ",
"            >>>>111>            ",
"            =;*:::*:            ",
"            =;:*:*::            ",
"            =;1:::1:            ",
"            <;:::::<            ",
"            ,;:<<<:,            ",
"           ,<,<<:<,<,           ",
"           ,<<,<;,<<,           ",
"           #,<<,,<<,#           ",
"          #%#,<<<<,###          ",
"         #%%%#,,,,#&&%#         ",
"         #%&&%$$$$%&%%#         ",
"         $%&&&%$&&&$&%#         ",
"        #%&&$&%$$&%$&%#         ",
"        #%&$#&%$%$&$&%#         ",
"        #%%&$&%$%$&$%%#         ",
"         #;;;#%$$&&$###         ",
"          ;;1##X$##X##          ",
"          1-1oOOXOOX;           ",
"          +1+oOooOoOX           ",
"          +@+oOoooOoX           ",
"          +@XOOooOOOX           ",
"          +@XOOooOOOX           ",
"          +@XoOoXOOoX           ",
"           + XXX XXX            ",
"           + ... ...            ",
"           @..X   X..           ",
"                                ",
"                                "
};